<svg width="20" height="20" viewBox="0 0 20 20" fill="none" xmlns="http://www.w3.org/2000/svg">
<path fill-rule="evenodd" clip-rule="evenodd" d="M10 20C15.523 20 20 15.523 20 10C20 4.477 15.523 0 10 0C4.477 0 0 4.477 0 10C0 15.523 4.477 20 10 20ZM13.232 11.361L14.776 12.909C15.083 13.218 15.073 13.729 14.756 14.049L14.314 14.481L14.304 14.472C13.9336 14.7563 13.4936 14.9359 13.03 14.992C12.93 15.003 10.595 15.222 7.697 12.318C5.6 10.217 4.827 8.668 5.032 6.974C5.055 6.762 5.107 6.552 5.192 6.331C5.282 6.099 5.404 5.883 5.55 5.697L5.538 5.685L5.973 5.246C6.292 4.926 6.802 4.917 7.108 5.225L8.653 6.773C8.96 7.081 8.951 7.591 8.633 7.911L8.375 8.168L7.853 8.691C7.88141 8.74077 7.90941 8.79077 7.937 8.841L7.938 8.844C8.211 9.337 8.585 10.011 9.293 10.72C10.001 11.43 10.673 11.804 11.165 12.077L11.318 12.163L12.096 11.383C12.415 11.063 12.924 11.054 13.232 11.362V11.361Z" fill="#FFDD1E"/>
</svg>
