<svg width="20" height="20" viewBox="0 0 20 20" fill="none" xmlns="http://www.w3.org/2000/svg">
<path d="M10 20C11.9778 20 13.9112 19.4135 15.5557 18.3147C17.2002 17.2159 18.4819 15.6541 19.2388 13.8268C19.9957 11.9996 20.1937 9.98891 19.8079 8.0491C19.422 6.10929 18.4696 4.32746 17.0711 2.92894C15.6725 1.53041 13.8907 0.578004 11.9509 0.192152C10.0111 -0.193701 8.00043 0.00433284 6.17317 0.761209C4.3459 1.51809 2.78412 2.79981 1.6853 4.4443C0.58649 6.08879 0 8.02219 0 10C0 12.6522 1.05357 15.1957 2.92893 17.0711C3.85752 17.9997 4.95991 18.7363 6.17317 19.2388C7.38642 19.7413 8.68678 20 10 20ZM6.293 9.293C6.38581 9.20011 6.49603 9.12641 6.61734 9.07613C6.73865 9.02585 6.86868 8.99997 7 8.99997C7.13132 8.99997 7.26135 9.02585 7.38266 9.07613C7.50397 9.12641 7.61419 9.20011 7.707 9.293L9 10.5859L12.293 7.293C12.4816 7.11085 12.7342 7.01005 12.9964 7.01233C13.2586 7.01461 13.5094 7.11978 13.6948 7.30519C13.8802 7.49059 13.9854 7.74141 13.9877 8.0036C13.99 8.2658 13.8892 8.5184 13.707 8.707L9.707 12.707C9.61418 12.7999 9.50396 12.8736 9.38265 12.9238C9.26134 12.9741 9.13132 13 9 13C8.86868 13 8.73866 12.9741 8.61735 12.9238C8.49604 12.8736 8.38582 12.7999 8.293 12.707L6.293 10.707C6.2001 10.6142 6.12641 10.504 6.07613 10.3827C6.02585 10.2614 5.99996 10.1313 5.99996 10C5.99996 9.86869 6.02585 9.73866 6.07613 9.61734C6.12641 9.49603 6.2001 9.38582 6.293 9.293Z" fill="#FFDD1E"/>
</svg>
